<svg id="Layer_1" data-name="Layer 1" xmlns="http://www.w3.org/2000/svg" viewBox="0 0 763.18 145.97"><defs><style>.cls-1{fill:#333332;}</style></defs><title>Openpay_Single Line Logo_RGB_Rich Grey_240120</title><path class="cls-1" d="M802.54,229.23v51A48.66,48.66,0,0,1,767.05,327v8.77H740.87V327a48.65,48.65,0,0,1-35.49-46.78v-51h25.94v51a22.56,22.56,0,0,0,45.11,0v-51Z" transform="translate(-39.35 -224.66)"/><rect class="cls-1" x="701.35" y="119.79" width="26.17" height="26.17"/><path class="cls-1" d="M643.64,302.71c-14.1,0-26.12-11.74-26.12-25.86a25.86,25.86,0,0,1,26.12-26.12,26.21,26.21,0,0,1,26.11,25.17c0,.31,0,.62,0,1a25.86,25.86,0,0,1-26.13,25.86m51.81-26.81a51.9,51.9,0,1,0-26.16,45.89v4.31h26.17V276.82c0-.31,0-.62,0-.92" transform="translate(-39.35 -224.66)"/><rect class="cls-1" x="110.77" y="119.8" width="26.17" height="26.17"/><path class="cls-1" d="M201.93,302.63a26,26,0,1,1,26.13-25.86c0,14.11-12,25.86-26.13,25.86m0-77.89a52,52,0,0,0-51.81,51.9v59.12h26.17V321.71a51.9,51.9,0,1,0,25.64-97" transform="translate(-39.35 -224.66)"/><rect class="cls-1" x="440.83" y="119.8" width="26.17" height="26.17"/><path class="cls-1" d="M532,302.63a26,26,0,1,1,26.12-25.86c0,14.11-12,25.86-26.12,25.86m0-77.89a52,52,0,0,0-51.81,51.9v59.12h26.16V321.71a51.9,51.9,0,1,0,25.65-97" transform="translate(-39.35 -224.66)"/><path class="cls-1" d="M117.33,276.73a26,26,0,1,1-26-26,26.07,26.07,0,0,1,26,26m26,0a52,52,0,1,0-52,52,52.15,52.15,0,0,0,52-52" transform="translate(-39.35 -224.66)"/><path class="cls-1" d="M421.73,224.74a48.67,48.67,0,0,0-48.62,48.62V326h26.13V273.36a22.58,22.58,0,0,1,45.16,0V326h26V273.36a48.67,48.67,0,0,0-48.62-48.62" transform="translate(-39.35 -224.66)"/><path class="cls-1" d="M289.19,264.46l.36-.64a26.6,26.6,0,0,1,46.66,0l.36.64Zm74.14-.32h0a52,52,0,1,0-50.44,64.49A51.31,51.31,0,0,0,344.32,318l-18.21-18.21a26.53,26.53,0,0,1-35.49-8.5l-.44-.68h72.76c1.23-4.48,2.92-16.7.39-26.42" transform="translate(-39.35 -224.66)"/></svg>